<mxfile host="Electron" modified="2024-02-11T13:51:52.287Z" agent="Mozilla/5.0 (Windows NT 10.0; Win64; x64) AppleWebKit/537.36 (KHTML, like Gecko) draw.io/23.0.2 Chrome/120.0.6099.109 Electron/28.1.0 Safari/537.36" etag="ECvXq88MKchTtdfdGd-K" version="23.0.2" type="device">
  <diagram id="C5RBs43oDa-KdzZeNtuy" name="Page-1">
    <mxGraphModel dx="3637" dy="2056" grid="1" gridSize="10" guides="1" tooltips="1" connect="1" arrows="1" fold="1" page="1" pageScale="1" pageWidth="827" pageHeight="1169" math="0" shadow="0">
      <root>
        <mxCell id="WIyWlLk6GJQsqaUBKTNV-0" />
        <mxCell id="WIyWlLk6GJQsqaUBKTNV-1" parent="WIyWlLk6GJQsqaUBKTNV-0" />
        <mxCell id="R3gAXF-IG7hELK_54bFL-0" value="Student&amp;nbsp;" style="rounded=0;whiteSpace=wrap;html=1;" parent="WIyWlLk6GJQsqaUBKTNV-1" vertex="1">
          <mxGeometry x="40" y="496" width="120" height="60" as="geometry" />
        </mxCell>
        <mxCell id="R3gAXF-IG7hELK_54bFL-3" value="&lt;u&gt;id&lt;/u&gt;: nvarchar(10)" style="ellipse;whiteSpace=wrap;html=1;" parent="WIyWlLk6GJQsqaUBKTNV-1" vertex="1">
          <mxGeometry x="-120" y="440.75" width="120" height="50" as="geometry" />
        </mxCell>
        <mxCell id="R3gAXF-IG7hELK_54bFL-4" value="name: nvarchar(150)" style="ellipse;whiteSpace=wrap;html=1;" parent="WIyWlLk6GJQsqaUBKTNV-1" vertex="1">
          <mxGeometry x="-80" y="401.75" width="120" height="50" as="geometry" />
        </mxCell>
        <mxCell id="R3gAXF-IG7hELK_54bFL-5" value="dob: date" style="ellipse;whiteSpace=wrap;html=1;" parent="WIyWlLk6GJQsqaUBKTNV-1" vertex="1">
          <mxGeometry x="80" y="426.5" width="100" height="40" as="geometry" />
        </mxCell>
        <mxCell id="R3gAXF-IG7hELK_54bFL-6" value="gender: bit" style="ellipse;whiteSpace=wrap;html=1;" parent="WIyWlLk6GJQsqaUBKTNV-1" vertex="1">
          <mxGeometry x="150" y="440" width="90" height="40" as="geometry" />
        </mxCell>
        <mxCell id="R3gAXF-IG7hELK_54bFL-11" value="Major" style="rounded=0;whiteSpace=wrap;html=1;" parent="WIyWlLk6GJQsqaUBKTNV-1" vertex="1">
          <mxGeometry x="40" y="1161" width="120" height="60" as="geometry" />
        </mxCell>
        <mxCell id="R3gAXF-IG7hELK_54bFL-13" value="&lt;u&gt;id&lt;/u&gt;: nvarchar(5)" style="ellipse;whiteSpace=wrap;html=1;" parent="WIyWlLk6GJQsqaUBKTNV-1" vertex="1">
          <mxGeometry x="-10" y="1096.37" width="100" height="50" as="geometry" />
        </mxCell>
        <mxCell id="R3gAXF-IG7hELK_54bFL-14" value="name: nvarchar(150)" style="ellipse;whiteSpace=wrap;html=1;" parent="WIyWlLk6GJQsqaUBKTNV-1" vertex="1">
          <mxGeometry x="115" y="1096.37" width="150" height="50" as="geometry" />
        </mxCell>
        <mxCell id="R3gAXF-IG7hELK_54bFL-15" value="Subject" style="rounded=0;whiteSpace=wrap;html=1;" parent="WIyWlLk6GJQsqaUBKTNV-1" vertex="1">
          <mxGeometry x="-814" y="1160" width="120" height="60" as="geometry" />
        </mxCell>
        <mxCell id="R3gAXF-IG7hELK_54bFL-16" value="&lt;u&gt;id&lt;/u&gt;: nvarchar(10)" style="ellipse;whiteSpace=wrap;html=1;" parent="WIyWlLk6GJQsqaUBKTNV-1" vertex="1">
          <mxGeometry x="-808" y="1230" width="99" height="50" as="geometry" />
        </mxCell>
        <mxCell id="R3gAXF-IG7hELK_54bFL-17" value="name: nvarchar(150)" style="ellipse;whiteSpace=wrap;html=1;" parent="WIyWlLk6GJQsqaUBKTNV-1" vertex="1">
          <mxGeometry x="-715" y="1230" width="120" height="60" as="geometry" />
        </mxCell>
        <mxCell id="R3gAXF-IG7hELK_54bFL-21" value="Room" style="rounded=0;whiteSpace=wrap;html=1;" parent="WIyWlLk6GJQsqaUBKTNV-1" vertex="1">
          <mxGeometry x="-791" y="89.25" width="120" height="60" as="geometry" />
        </mxCell>
        <mxCell id="R3gAXF-IG7hELK_54bFL-22" value="&lt;u&gt;id&lt;/u&gt;: nvarchar(10)" style="ellipse;whiteSpace=wrap;html=1;" parent="WIyWlLk6GJQsqaUBKTNV-1" vertex="1">
          <mxGeometry x="-919" y="54.25" width="120" height="40" as="geometry" />
        </mxCell>
        <mxCell id="R3gAXF-IG7hELK_54bFL-24" value="Lecturer" style="rounded=0;whiteSpace=wrap;html=1;" parent="WIyWlLk6GJQsqaUBKTNV-1" vertex="1">
          <mxGeometry x="-1339" y="498.75" width="120" height="60" as="geometry" />
        </mxCell>
        <mxCell id="R3gAXF-IG7hELK_54bFL-25" value="&lt;u&gt;id&lt;/u&gt;:&amp;nbsp;nvarchar(50)" style="ellipse;whiteSpace=wrap;html=1;" parent="WIyWlLk6GJQsqaUBKTNV-1" vertex="1">
          <mxGeometry x="-1470" y="461.75" width="120" height="50" as="geometry" />
        </mxCell>
        <mxCell id="R3gAXF-IG7hELK_54bFL-26" value="name: nvarchar(150)" style="ellipse;whiteSpace=wrap;html=1;" parent="WIyWlLk6GJQsqaUBKTNV-1" vertex="1">
          <mxGeometry x="-1417" y="571.75" width="120" height="50" as="geometry" />
        </mxCell>
        <mxCell id="R3gAXF-IG7hELK_54bFL-27" value="Group" style="rounded=0;whiteSpace=wrap;html=1;" parent="WIyWlLk6GJQsqaUBKTNV-1" vertex="1">
          <mxGeometry x="-1019" y="271.75" width="120" height="60" as="geometry" />
        </mxCell>
        <mxCell id="R3gAXF-IG7hELK_54bFL-39" value="creadit: int" style="ellipse;whiteSpace=wrap;html=1;" parent="WIyWlLk6GJQsqaUBKTNV-1" vertex="1">
          <mxGeometry x="-885" y="1230" width="81" height="50" as="geometry" />
        </mxCell>
        <mxCell id="R3gAXF-IG7hELK_54bFL-40" value="Slot" style="rounded=0;whiteSpace=wrap;html=1;" parent="WIyWlLk6GJQsqaUBKTNV-1" vertex="1">
          <mxGeometry x="-470.25" y="270.75" width="120" height="60" as="geometry" />
        </mxCell>
        <mxCell id="R3gAXF-IG7hELK_54bFL-41" value="&lt;u&gt;id&lt;/u&gt;: nvarchar(5)" style="ellipse;whiteSpace=wrap;html=1;" parent="WIyWlLk6GJQsqaUBKTNV-1" vertex="1">
          <mxGeometry x="-398.25" y="340.75" width="97" height="50" as="geometry" />
        </mxCell>
        <mxCell id="R3gAXF-IG7hELK_54bFL-42" value="startTime: nvarchar(5)&amp;nbsp;" style="ellipse;whiteSpace=wrap;html=1;" parent="WIyWlLk6GJQsqaUBKTNV-1" vertex="1">
          <mxGeometry x="-502.25" y="360" width="120" height="50" as="geometry" />
        </mxCell>
        <mxCell id="R3gAXF-IG7hELK_54bFL-43" value="endTime: nvarchar(5)" style="ellipse;whiteSpace=wrap;html=1;" parent="WIyWlLk6GJQsqaUBKTNV-1" vertex="1">
          <mxGeometry x="-470.25" y="190.75" width="110" height="50" as="geometry" />
        </mxCell>
        <mxCell id="f4kUEkbPoWxWhxqfEex--8" value="have" style="rhombus;whiteSpace=wrap;html=1;" parent="WIyWlLk6GJQsqaUBKTNV-1" vertex="1">
          <mxGeometry x="-330" y="1161" width="80" height="59" as="geometry" />
        </mxCell>
        <mxCell id="f4kUEkbPoWxWhxqfEex--20" value="Assessment" style="rounded=0;whiteSpace=wrap;html=1;" parent="WIyWlLk6GJQsqaUBKTNV-1" vertex="1">
          <mxGeometry x="-260.0000000000001" y="893.8699999999999" width="120" height="60" as="geometry" />
        </mxCell>
        <mxCell id="f4kUEkbPoWxWhxqfEex--21" value="&lt;u&gt;id&lt;/u&gt;: nvarchar(5)" style="ellipse;whiteSpace=wrap;html=1;" parent="WIyWlLk6GJQsqaUBKTNV-1" vertex="1">
          <mxGeometry x="-301.0700000000001" y="827.5" width="94.07" height="45" as="geometry" />
        </mxCell>
        <mxCell id="f4kUEkbPoWxWhxqfEex--22" value="name: nvarchar(50)" style="ellipse;whiteSpace=wrap;html=1;" parent="WIyWlLk6GJQsqaUBKTNV-1" vertex="1">
          <mxGeometry x="-212.00000000000006" y="810" width="124.07" height="50" as="geometry" />
        </mxCell>
        <mxCell id="f4kUEkbPoWxWhxqfEex--24" value="" style="endArrow=none;html=1;rounded=0;entryX=0.5;entryY=1;entryDx=0;entryDy=0;exitX=0.25;exitY=0;exitDx=0;exitDy=0;" parent="WIyWlLk6GJQsqaUBKTNV-1" source="f4kUEkbPoWxWhxqfEex--20" target="f4kUEkbPoWxWhxqfEex--21" edge="1">
          <mxGeometry width="50" height="50" relative="1" as="geometry">
            <mxPoint x="-377.0000000000001" y="982.5" as="sourcePoint" />
            <mxPoint x="-262.927538390814" y="872.1326388405737" as="targetPoint" />
          </mxGeometry>
        </mxCell>
        <mxCell id="f4kUEkbPoWxWhxqfEex--25" value="" style="endArrow=none;html=1;rounded=0;entryX=0.5;entryY=1;entryDx=0;entryDy=0;exitX=0.5;exitY=0;exitDx=0;exitDy=0;" parent="WIyWlLk6GJQsqaUBKTNV-1" source="R3gAXF-IG7hELK_54bFL-40" target="R3gAXF-IG7hELK_54bFL-43" edge="1">
          <mxGeometry width="50" height="50" relative="1" as="geometry">
            <mxPoint x="-378.25" y="390.75" as="sourcePoint" />
            <mxPoint x="-328.25" y="340.75" as="targetPoint" />
          </mxGeometry>
        </mxCell>
        <mxCell id="f4kUEkbPoWxWhxqfEex--26" value="" style="endArrow=none;html=1;rounded=0;entryX=0.25;entryY=1;entryDx=0;entryDy=0;exitX=0.5;exitY=0;exitDx=0;exitDy=0;" parent="WIyWlLk6GJQsqaUBKTNV-1" source="R3gAXF-IG7hELK_54bFL-42" target="R3gAXF-IG7hELK_54bFL-40" edge="1">
          <mxGeometry width="50" height="50" relative="1" as="geometry">
            <mxPoint x="-628.25" y="330.75" as="sourcePoint" />
            <mxPoint x="-578.25" y="280.75" as="targetPoint" />
          </mxGeometry>
        </mxCell>
        <mxCell id="f4kUEkbPoWxWhxqfEex--27" value="" style="endArrow=none;html=1;rounded=0;entryX=0;entryY=0;entryDx=0;entryDy=0;" parent="WIyWlLk6GJQsqaUBKTNV-1" source="R3gAXF-IG7hELK_54bFL-40" target="R3gAXF-IG7hELK_54bFL-41" edge="1">
          <mxGeometry width="50" height="50" relative="1" as="geometry">
            <mxPoint x="-368.25" y="400.75" as="sourcePoint" />
            <mxPoint x="-318.25" y="350.75" as="targetPoint" />
          </mxGeometry>
        </mxCell>
        <mxCell id="f4kUEkbPoWxWhxqfEex--28" value="phoneNumber: nvarchar(15)" style="ellipse;whiteSpace=wrap;html=1;" parent="WIyWlLk6GJQsqaUBKTNV-1" vertex="1">
          <mxGeometry x="-1470" y="498.75" width="120" height="60" as="geometry" />
        </mxCell>
        <mxCell id="f4kUEkbPoWxWhxqfEex--29" value="" style="endArrow=none;html=1;rounded=0;entryX=1;entryY=0.5;entryDx=0;entryDy=0;exitX=0;exitY=0.5;exitDx=0;exitDy=0;" parent="WIyWlLk6GJQsqaUBKTNV-1" source="R3gAXF-IG7hELK_54bFL-24" target="f4kUEkbPoWxWhxqfEex--28" edge="1">
          <mxGeometry width="50" height="50" relative="1" as="geometry">
            <mxPoint x="-1579" y="718.75" as="sourcePoint" />
            <mxPoint x="-1529" y="668.75" as="targetPoint" />
          </mxGeometry>
        </mxCell>
        <mxCell id="f4kUEkbPoWxWhxqfEex--30" value="" style="endArrow=none;html=1;rounded=0;entryX=1;entryY=1;entryDx=0;entryDy=0;exitX=0;exitY=0.25;exitDx=0;exitDy=0;" parent="WIyWlLk6GJQsqaUBKTNV-1" source="R3gAXF-IG7hELK_54bFL-24" target="R3gAXF-IG7hELK_54bFL-25" edge="1">
          <mxGeometry width="50" height="50" relative="1" as="geometry">
            <mxPoint x="-1259" y="648.75" as="sourcePoint" />
            <mxPoint x="-1209" y="598.75" as="targetPoint" />
          </mxGeometry>
        </mxCell>
        <mxCell id="f4kUEkbPoWxWhxqfEex--31" value="" style="endArrow=none;html=1;rounded=0;entryX=0.5;entryY=0;entryDx=0;entryDy=0;exitX=0;exitY=1;exitDx=0;exitDy=0;" parent="WIyWlLk6GJQsqaUBKTNV-1" source="R3gAXF-IG7hELK_54bFL-24" target="R3gAXF-IG7hELK_54bFL-26" edge="1">
          <mxGeometry width="50" height="50" relative="1" as="geometry">
            <mxPoint x="-1329" y="478.75" as="sourcePoint" />
            <mxPoint x="-1279" y="428.75" as="targetPoint" />
          </mxGeometry>
        </mxCell>
        <mxCell id="f4kUEkbPoWxWhxqfEex--32" value="" style="endArrow=none;html=1;rounded=0;entryX=1;entryY=1;entryDx=0;entryDy=0;exitX=0;exitY=0.25;exitDx=0;exitDy=0;" parent="WIyWlLk6GJQsqaUBKTNV-1" source="R3gAXF-IG7hELK_54bFL-21" target="R3gAXF-IG7hELK_54bFL-22" edge="1">
          <mxGeometry width="50" height="50" relative="1" as="geometry">
            <mxPoint x="-831.5" y="229.25" as="sourcePoint" />
            <mxPoint x="-781.5" y="179.25" as="targetPoint" />
          </mxGeometry>
        </mxCell>
        <mxCell id="f4kUEkbPoWxWhxqfEex--36" value="" style="endArrow=none;html=1;rounded=0;entryX=1;entryY=1;entryDx=0;entryDy=0;exitX=0;exitY=0;exitDx=0;exitDy=0;" parent="WIyWlLk6GJQsqaUBKTNV-1" source="R3gAXF-IG7hELK_54bFL-0" target="R3gAXF-IG7hELK_54bFL-3" edge="1">
          <mxGeometry width="50" height="50" relative="1" as="geometry">
            <mxPoint x="-10" y="506" as="sourcePoint" />
            <mxPoint x="40" y="456" as="targetPoint" />
          </mxGeometry>
        </mxCell>
        <mxCell id="f4kUEkbPoWxWhxqfEex--37" value="" style="endArrow=none;html=1;rounded=0;entryX=0.714;entryY=1.016;entryDx=0;entryDy=0;exitX=0.25;exitY=0;exitDx=0;exitDy=0;entryPerimeter=0;" parent="WIyWlLk6GJQsqaUBKTNV-1" source="R3gAXF-IG7hELK_54bFL-0" target="R3gAXF-IG7hELK_54bFL-4" edge="1">
          <mxGeometry width="50" height="50" relative="1" as="geometry">
            <mxPoint x="-200" y="416" as="sourcePoint" />
            <mxPoint x="-150" y="366" as="targetPoint" />
          </mxGeometry>
        </mxCell>
        <mxCell id="f4kUEkbPoWxWhxqfEex--38" value="" style="endArrow=none;html=1;rounded=0;entryX=0.5;entryY=1;entryDx=0;entryDy=0;exitX=0.5;exitY=0;exitDx=0;exitDy=0;" parent="WIyWlLk6GJQsqaUBKTNV-1" source="R3gAXF-IG7hELK_54bFL-0" target="R3gAXF-IG7hELK_54bFL-5" edge="1">
          <mxGeometry width="50" height="50" relative="1" as="geometry">
            <mxPoint x="-150" y="306" as="sourcePoint" />
            <mxPoint x="-100" y="256" as="targetPoint" />
          </mxGeometry>
        </mxCell>
        <mxCell id="f4kUEkbPoWxWhxqfEex--39" value="" style="endArrow=none;html=1;rounded=0;entryX=0;entryY=1;entryDx=0;entryDy=0;exitX=0.75;exitY=0;exitDx=0;exitDy=0;" parent="WIyWlLk6GJQsqaUBKTNV-1" source="R3gAXF-IG7hELK_54bFL-0" target="R3gAXF-IG7hELK_54bFL-6" edge="1">
          <mxGeometry width="50" height="50" relative="1" as="geometry">
            <mxPoint x="220" y="586" as="sourcePoint" />
            <mxPoint x="270" y="536" as="targetPoint" />
          </mxGeometry>
        </mxCell>
        <mxCell id="f4kUEkbPoWxWhxqfEex--40" value="" style="endArrow=none;html=1;rounded=0;entryX=0.25;entryY=0;entryDx=0;entryDy=0;exitX=0.65;exitY=0.998;exitDx=0;exitDy=0;exitPerimeter=0;" parent="WIyWlLk6GJQsqaUBKTNV-1" source="R3gAXF-IG7hELK_54bFL-13" target="R3gAXF-IG7hELK_54bFL-11" edge="1">
          <mxGeometry width="50" height="50" relative="1" as="geometry">
            <mxPoint x="-10" y="1090" as="sourcePoint" />
            <mxPoint x="40" y="1040" as="targetPoint" />
          </mxGeometry>
        </mxCell>
        <mxCell id="f4kUEkbPoWxWhxqfEex--41" value="" style="endArrow=none;html=1;rounded=0;entryX=0;entryY=1;entryDx=0;entryDy=0;exitX=0.75;exitY=0;exitDx=0;exitDy=0;" parent="WIyWlLk6GJQsqaUBKTNV-1" source="R3gAXF-IG7hELK_54bFL-11" target="R3gAXF-IG7hELK_54bFL-14" edge="1">
          <mxGeometry width="50" height="50" relative="1" as="geometry">
            <mxPoint x="210" y="1230" as="sourcePoint" />
            <mxPoint x="260" y="1180" as="targetPoint" />
          </mxGeometry>
        </mxCell>
        <mxCell id="f4kUEkbPoWxWhxqfEex--42" value="" style="endArrow=none;html=1;rounded=0;entryX=0.5;entryY=1;entryDx=0;entryDy=0;exitX=0.68;exitY=-0.021;exitDx=0;exitDy=0;exitPerimeter=0;" parent="WIyWlLk6GJQsqaUBKTNV-1" source="f4kUEkbPoWxWhxqfEex--20" target="f4kUEkbPoWxWhxqfEex--22" edge="1">
          <mxGeometry width="50" height="50" relative="1" as="geometry">
            <mxPoint x="-136.99999999999997" y="1022.5" as="sourcePoint" />
            <mxPoint x="-86.99999999999997" y="972.5" as="targetPoint" />
          </mxGeometry>
        </mxCell>
        <mxCell id="f4kUEkbPoWxWhxqfEex--53" value="" style="endArrow=none;html=1;rounded=0;entryX=0.5;entryY=1;entryDx=0;entryDy=0;exitX=0.5;exitY=0;exitDx=0;exitDy=0;" parent="WIyWlLk6GJQsqaUBKTNV-1" source="R3gAXF-IG7hELK_54bFL-16" target="R3gAXF-IG7hELK_54bFL-15" edge="1">
          <mxGeometry width="50" height="50" relative="1" as="geometry">
            <mxPoint x="-1164" y="1210" as="sourcePoint" />
            <mxPoint x="-1114" y="1160" as="targetPoint" />
          </mxGeometry>
        </mxCell>
        <mxCell id="f4kUEkbPoWxWhxqfEex--54" value="" style="endArrow=none;html=1;rounded=0;entryX=0.25;entryY=1;entryDx=0;entryDy=0;exitX=1;exitY=0;exitDx=0;exitDy=0;" parent="WIyWlLk6GJQsqaUBKTNV-1" source="R3gAXF-IG7hELK_54bFL-39" target="R3gAXF-IG7hELK_54bFL-15" edge="1">
          <mxGeometry width="50" height="50" relative="1" as="geometry">
            <mxPoint x="-804" y="1360" as="sourcePoint" />
            <mxPoint x="-754" y="1310" as="targetPoint" />
          </mxGeometry>
        </mxCell>
        <mxCell id="f4kUEkbPoWxWhxqfEex--55" value="" style="endArrow=none;html=1;rounded=0;entryX=0.75;entryY=1;entryDx=0;entryDy=0;exitX=0;exitY=0;exitDx=0;exitDy=0;" parent="WIyWlLk6GJQsqaUBKTNV-1" source="R3gAXF-IG7hELK_54bFL-17" target="R3gAXF-IG7hELK_54bFL-15" edge="1">
          <mxGeometry width="50" height="50" relative="1" as="geometry">
            <mxPoint x="-694" y="1410" as="sourcePoint" />
            <mxPoint x="-644" y="1360" as="targetPoint" />
          </mxGeometry>
        </mxCell>
        <mxCell id="f4kUEkbPoWxWhxqfEex--70" value="" style="endArrow=none;html=1;rounded=0;entryX=0;entryY=0.5;entryDx=0;entryDy=0;exitX=1;exitY=0.5;exitDx=0;exitDy=0;" parent="WIyWlLk6GJQsqaUBKTNV-1" source="f4kUEkbPoWxWhxqfEex--8" target="R3gAXF-IG7hELK_54bFL-11" edge="1">
          <mxGeometry width="50" height="50" relative="1" as="geometry">
            <mxPoint x="-100" y="1250" as="sourcePoint" />
            <mxPoint x="-50" y="1200" as="targetPoint" />
          </mxGeometry>
        </mxCell>
        <mxCell id="f4kUEkbPoWxWhxqfEex--71" value="" style="endArrow=none;html=1;rounded=0;exitX=1;exitY=0.5;exitDx=0;exitDy=0;entryX=0;entryY=0.5;entryDx=0;entryDy=0;" parent="WIyWlLk6GJQsqaUBKTNV-1" source="R3gAXF-IG7hELK_54bFL-15" target="f4kUEkbPoWxWhxqfEex--8" edge="1">
          <mxGeometry width="50" height="50" relative="1" as="geometry">
            <mxPoint x="-190" y="1150" as="sourcePoint" />
            <mxPoint x="-140" y="1100" as="targetPoint" />
          </mxGeometry>
        </mxCell>
        <mxCell id="f4kUEkbPoWxWhxqfEex--79" value="Attendance" style="rhombus;whiteSpace=wrap;html=1;" parent="WIyWlLk6GJQsqaUBKTNV-1" vertex="1">
          <mxGeometry x="-479.65999999999997" y="597.25" width="94" height="90" as="geometry" />
        </mxCell>
        <mxCell id="f4kUEkbPoWxWhxqfEex--82" value="isPresent: bit" style="ellipse;whiteSpace=wrap;html=1;" parent="WIyWlLk6GJQsqaUBKTNV-1" vertex="1">
          <mxGeometry x="-411.84000000000003" y="678" width="80" height="50" as="geometry" />
        </mxCell>
        <mxCell id="f4kUEkbPoWxWhxqfEex--83" value="" style="endArrow=none;html=1;rounded=0;exitX=1;exitY=1;exitDx=0;exitDy=0;entryX=0.5;entryY=0;entryDx=0;entryDy=0;" parent="WIyWlLk6GJQsqaUBKTNV-1" source="f4kUEkbPoWxWhxqfEex--79" target="f4kUEkbPoWxWhxqfEex--82" edge="1">
          <mxGeometry width="50" height="50" relative="1" as="geometry">
            <mxPoint x="-295.84000000000003" y="707.75" as="sourcePoint" />
            <mxPoint x="-245.84" y="657.75" as="targetPoint" />
          </mxGeometry>
        </mxCell>
        <mxCell id="f4kUEkbPoWxWhxqfEex--85" value="belong&amp;nbsp;" style="rhombus;whiteSpace=wrap;html=1;" parent="WIyWlLk6GJQsqaUBKTNV-1" vertex="1">
          <mxGeometry x="60" y="800" width="80" height="80" as="geometry" />
        </mxCell>
        <mxCell id="f4kUEkbPoWxWhxqfEex--86" value="" style="endArrow=none;html=1;rounded=0;exitX=0.5;exitY=1;exitDx=0;exitDy=0;" parent="WIyWlLk6GJQsqaUBKTNV-1" source="f4kUEkbPoWxWhxqfEex--85" edge="1">
          <mxGeometry width="50" height="50" relative="1" as="geometry">
            <mxPoint x="100" y="1070" as="sourcePoint" />
            <mxPoint x="100" y="1160" as="targetPoint" />
          </mxGeometry>
        </mxCell>
        <mxCell id="f4kUEkbPoWxWhxqfEex--87" value="" style="endArrow=none;html=1;rounded=0;entryX=0.5;entryY=1;entryDx=0;entryDy=0;" parent="WIyWlLk6GJQsqaUBKTNV-1" source="f4kUEkbPoWxWhxqfEex--85" target="R3gAXF-IG7hELK_54bFL-0" edge="1">
          <mxGeometry width="50" height="50" relative="1" as="geometry">
            <mxPoint x="40" y="760" as="sourcePoint" />
            <mxPoint x="90" y="710" as="targetPoint" />
          </mxGeometry>
        </mxCell>
        <mxCell id="f4kUEkbPoWxWhxqfEex--92" value="record: dateTime" style="ellipse;whiteSpace=wrap;html=1;" parent="WIyWlLk6GJQsqaUBKTNV-1" vertex="1">
          <mxGeometry x="-496.8399999999999" y="708" width="120" height="55" as="geometry" />
        </mxCell>
        <mxCell id="f4kUEkbPoWxWhxqfEex--93" value="" style="endArrow=none;html=1;rounded=0;entryX=0.5;entryY=1;entryDx=0;entryDy=0;exitX=0.5;exitY=0;exitDx=0;exitDy=0;" parent="WIyWlLk6GJQsqaUBKTNV-1" source="f4kUEkbPoWxWhxqfEex--92" target="f4kUEkbPoWxWhxqfEex--79" edge="1">
          <mxGeometry width="50" height="50" relative="1" as="geometry">
            <mxPoint x="-495.8399999999999" y="727.75" as="sourcePoint" />
            <mxPoint x="-445.84000000000003" y="677.75" as="targetPoint" />
          </mxGeometry>
        </mxCell>
        <mxCell id="f4kUEkbPoWxWhxqfEex--94" value="description: nvarchar(500)" style="ellipse;whiteSpace=wrap;html=1;" parent="WIyWlLk6GJQsqaUBKTNV-1" vertex="1">
          <mxGeometry x="-395.75000000000006" y="559" width="110" height="59" as="geometry" />
        </mxCell>
        <mxCell id="f4kUEkbPoWxWhxqfEex--95" value="" style="endArrow=none;html=1;rounded=0;entryX=1;entryY=0;entryDx=0;entryDy=0;exitX=0;exitY=0.5;exitDx=0;exitDy=0;" parent="WIyWlLk6GJQsqaUBKTNV-1" source="f4kUEkbPoWxWhxqfEex--94" target="f4kUEkbPoWxWhxqfEex--79" edge="1">
          <mxGeometry width="50" height="50" relative="1" as="geometry">
            <mxPoint x="-295.84000000000003" y="787.75" as="sourcePoint" />
            <mxPoint x="-245.84" y="737.75" as="targetPoint" />
            <Array as="points">
              <mxPoint x="-405.40999999999997" y="607.25" />
            </Array>
          </mxGeometry>
        </mxCell>
        <mxCell id="f4kUEkbPoWxWhxqfEex--117" value="&lt;u&gt;id&lt;/u&gt;: nvarchar(10)" style="ellipse;whiteSpace=wrap;html=1;" parent="WIyWlLk6GJQsqaUBKTNV-1" vertex="1">
          <mxGeometry x="-1019" y="202.75" width="120" height="55" as="geometry" />
        </mxCell>
        <mxCell id="f4kUEkbPoWxWhxqfEex--123" value="Prerequisites" style="rhombus;whiteSpace=wrap;html=1;" parent="WIyWlLk6GJQsqaUBKTNV-1" vertex="1">
          <mxGeometry x="-995" y="1140.5" width="110" height="101" as="geometry" />
        </mxCell>
        <mxCell id="f4kUEkbPoWxWhxqfEex--124" value="" style="endArrow=none;html=1;rounded=0;entryX=0;entryY=0.5;entryDx=0;entryDy=0;exitX=1;exitY=0.5;exitDx=0;exitDy=0;" parent="WIyWlLk6GJQsqaUBKTNV-1" source="f4kUEkbPoWxWhxqfEex--123" target="R3gAXF-IG7hELK_54bFL-15" edge="1">
          <mxGeometry width="50" height="50" relative="1" as="geometry">
            <mxPoint x="-866" y="1390" as="sourcePoint" />
            <mxPoint x="-816" y="1340" as="targetPoint" />
          </mxGeometry>
        </mxCell>
        <mxCell id="f4kUEkbPoWxWhxqfEex--126" value="" style="endArrow=none;html=1;rounded=0;entryX=0.5;entryY=0;entryDx=0;entryDy=0;exitX=0.075;exitY=-0.029;exitDx=0;exitDy=0;exitPerimeter=0;" parent="WIyWlLk6GJQsqaUBKTNV-1" source="R3gAXF-IG7hELK_54bFL-15" target="f4kUEkbPoWxWhxqfEex--123" edge="1">
          <mxGeometry width="50" height="50" relative="1" as="geometry">
            <mxPoint x="-796" y="1150" as="sourcePoint" />
            <mxPoint x="-981" y="1140.5" as="targetPoint" />
            <Array as="points">
              <mxPoint x="-805" y="1080" />
              <mxPoint x="-940" y="1080" />
            </Array>
          </mxGeometry>
        </mxCell>
        <mxCell id="f4kUEkbPoWxWhxqfEex--132" value="semester: int" style="ellipse;whiteSpace=wrap;html=1;" parent="WIyWlLk6GJQsqaUBKTNV-1" vertex="1">
          <mxGeometry x="-660" y="1128" width="100" height="59" as="geometry" />
        </mxCell>
        <mxCell id="f4kUEkbPoWxWhxqfEex--133" value="" style="endArrow=none;html=1;rounded=0;entryX=1;entryY=0.25;entryDx=0;entryDy=0;exitX=0;exitY=0.5;exitDx=0;exitDy=0;" parent="WIyWlLk6GJQsqaUBKTNV-1" source="f4kUEkbPoWxWhxqfEex--132" target="R3gAXF-IG7hELK_54bFL-15" edge="1">
          <mxGeometry width="50" height="50" relative="1" as="geometry">
            <mxPoint x="-636.5" y="1150" as="sourcePoint" />
            <mxPoint x="-666.5" y="1180" as="targetPoint" />
          </mxGeometry>
        </mxCell>
        <mxCell id="f4kUEkbPoWxWhxqfEex--134" value="grade" style="rhombus;whiteSpace=wrap;html=1;" parent="WIyWlLk6GJQsqaUBKTNV-1" vertex="1">
          <mxGeometry x="-464.32" y="883.4300000000001" width="80" height="80" as="geometry" />
        </mxCell>
        <mxCell id="f4kUEkbPoWxWhxqfEex--137" value="" style="endArrow=none;html=1;rounded=0;entryX=1;entryY=0;entryDx=0;entryDy=0;exitX=0;exitY=1;exitDx=0;exitDy=0;" parent="WIyWlLk6GJQsqaUBKTNV-1" source="f4kUEkbPoWxWhxqfEex--134" target="R3gAXF-IG7hELK_54bFL-15" edge="1">
          <mxGeometry width="50" height="50" relative="1" as="geometry">
            <mxPoint x="-660.5" y="1050" as="sourcePoint" />
            <mxPoint x="-690.5" y="1080" as="targetPoint" />
          </mxGeometry>
        </mxCell>
        <mxCell id="f4kUEkbPoWxWhxqfEex--139" value="weight: int" style="ellipse;whiteSpace=wrap;html=1;" parent="WIyWlLk6GJQsqaUBKTNV-1" vertex="1">
          <mxGeometry x="-465.82" y="817.9300000000001" width="82.5" height="50" as="geometry" />
        </mxCell>
        <mxCell id="f4kUEkbPoWxWhxqfEex--145" value="schedule" style="rhombus;whiteSpace=wrap;html=1;" parent="WIyWlLk6GJQsqaUBKTNV-1" vertex="1">
          <mxGeometry x="-771" y="261.75" width="80" height="80" as="geometry" />
        </mxCell>
        <mxCell id="f4kUEkbPoWxWhxqfEex--157" value="" style="endArrow=none;html=1;rounded=0;entryX=1;entryY=0.5;entryDx=0;entryDy=0;exitX=0;exitY=0.5;exitDx=0;exitDy=0;" parent="WIyWlLk6GJQsqaUBKTNV-1" source="f4kUEkbPoWxWhxqfEex--20" target="f4kUEkbPoWxWhxqfEex--134" edge="1">
          <mxGeometry width="50" height="50" relative="1" as="geometry">
            <mxPoint x="-494.58" y="933.4100000000001" as="sourcePoint" />
            <mxPoint x="-529.1000000000004" y="958.9300000000001" as="targetPoint" />
          </mxGeometry>
        </mxCell>
        <mxCell id="f4kUEkbPoWxWhxqfEex--159" value="" style="endArrow=none;html=1;rounded=0;entryX=0.5;entryY=0;entryDx=0;entryDy=0;exitX=0.5;exitY=1;exitDx=0;exitDy=0;" parent="WIyWlLk6GJQsqaUBKTNV-1" source="f4kUEkbPoWxWhxqfEex--139" target="f4kUEkbPoWxWhxqfEex--134" edge="1">
          <mxGeometry width="50" height="50" relative="1" as="geometry">
            <mxPoint x="-415.32" y="857.72" as="sourcePoint" />
            <mxPoint x="-384.32" y="877.72" as="targetPoint" />
          </mxGeometry>
        </mxCell>
        <mxCell id="f4kUEkbPoWxWhxqfEex--167" value="weekday: nvarchar(5)" style="ellipse;whiteSpace=wrap;html=1;" parent="WIyWlLk6GJQsqaUBKTNV-1" vertex="1">
          <mxGeometry x="-831" y="230" width="91" height="46.75" as="geometry" />
        </mxCell>
        <mxCell id="f4kUEkbPoWxWhxqfEex--168" value="" style="endArrow=none;html=1;rounded=0;entryX=1;entryY=1;entryDx=0;entryDy=0;exitX=0;exitY=0;exitDx=0;exitDy=0;" parent="WIyWlLk6GJQsqaUBKTNV-1" source="f4kUEkbPoWxWhxqfEex--145" target="f4kUEkbPoWxWhxqfEex--167" edge="1">
          <mxGeometry width="50" height="50" relative="1" as="geometry">
            <mxPoint x="-711" y="280.75" as="sourcePoint" />
            <mxPoint x="-663" y="210.25" as="targetPoint" />
          </mxGeometry>
        </mxCell>
        <mxCell id="f4kUEkbPoWxWhxqfEex--171" value="" style="endArrow=none;html=1;rounded=0;entryX=0.5;entryY=1;entryDx=0;entryDy=0;exitX=0.5;exitY=0;exitDx=0;exitDy=0;" parent="WIyWlLk6GJQsqaUBKTNV-1" source="f4kUEkbPoWxWhxqfEex--145" target="R3gAXF-IG7hELK_54bFL-21" edge="1">
          <mxGeometry width="50" height="50" relative="1" as="geometry">
            <mxPoint x="-824" y="340.75" as="sourcePoint" />
            <mxPoint x="-762" y="194.75" as="targetPoint" />
          </mxGeometry>
        </mxCell>
        <mxCell id="f4kUEkbPoWxWhxqfEex--172" value="" style="endArrow=none;html=1;rounded=0;entryX=1;entryY=0.5;entryDx=0;entryDy=0;exitX=0;exitY=0.5;exitDx=0;exitDy=0;" parent="WIyWlLk6GJQsqaUBKTNV-1" source="R3gAXF-IG7hELK_54bFL-40" target="f4kUEkbPoWxWhxqfEex--145" edge="1">
          <mxGeometry width="50" height="50" relative="1" as="geometry">
            <mxPoint x="-651" y="415.75" as="sourcePoint" />
            <mxPoint x="-589" y="269.75" as="targetPoint" />
          </mxGeometry>
        </mxCell>
        <mxCell id="f4kUEkbPoWxWhxqfEex--173" value="" style="endArrow=none;html=1;rounded=0;entryX=0;entryY=0.5;entryDx=0;entryDy=0;" parent="WIyWlLk6GJQsqaUBKTNV-1" source="R3gAXF-IG7hELK_54bFL-27" target="f4kUEkbPoWxWhxqfEex--145" edge="1">
          <mxGeometry width="50" height="50" relative="1" as="geometry">
            <mxPoint x="-895" y="357.75" as="sourcePoint" />
            <mxPoint x="-845" y="307.75" as="targetPoint" />
          </mxGeometry>
        </mxCell>
        <mxCell id="f4kUEkbPoWxWhxqfEex--174" value="" style="endArrow=none;html=1;rounded=0;entryX=0.5;entryY=0;entryDx=0;entryDy=0;exitX=0.5;exitY=1;exitDx=0;exitDy=0;" parent="WIyWlLk6GJQsqaUBKTNV-1" source="f4kUEkbPoWxWhxqfEex--117" target="R3gAXF-IG7hELK_54bFL-27" edge="1">
          <mxGeometry width="50" height="50" relative="1" as="geometry">
            <mxPoint x="-853" y="226.25" as="sourcePoint" />
            <mxPoint x="-780" y="226.25" as="targetPoint" />
          </mxGeometry>
        </mxCell>
        <mxCell id="f4kUEkbPoWxWhxqfEex--176" value="Table 1" style="text;html=1;align=center;verticalAlign=middle;resizable=0;points=[];autosize=1;strokeColor=none;fillColor=none;" parent="WIyWlLk6GJQsqaUBKTNV-1" vertex="1">
          <mxGeometry x="70" y="1221" width="60" height="30" as="geometry" />
        </mxCell>
        <mxCell id="f4kUEkbPoWxWhxqfEex--177" value="Table 2" style="text;html=1;align=center;verticalAlign=middle;resizable=0;points=[];autosize=1;strokeColor=none;fillColor=none;" parent="WIyWlLk6GJQsqaUBKTNV-1" vertex="1">
          <mxGeometry x="-685" y="1191" width="60" height="30" as="geometry" />
        </mxCell>
        <mxCell id="f4kUEkbPoWxWhxqfEex--178" value="Table 5" style="text;html=1;align=center;verticalAlign=middle;resizable=0;points=[];autosize=1;strokeColor=none;fillColor=none;" parent="WIyWlLk6GJQsqaUBKTNV-1" vertex="1">
          <mxGeometry x="-752" y="59.25" width="60" height="30" as="geometry" />
        </mxCell>
        <mxCell id="f4kUEkbPoWxWhxqfEex--181" value="Table 3" style="text;html=1;align=center;verticalAlign=middle;resizable=0;points=[];autosize=1;strokeColor=none;fillColor=none;" parent="WIyWlLk6GJQsqaUBKTNV-1" vertex="1">
          <mxGeometry x="-140" y="908.87" width="60" height="30" as="geometry" />
        </mxCell>
        <mxCell id="f4kUEkbPoWxWhxqfEex--182" value="Table 6" style="text;html=1;align=center;verticalAlign=middle;resizable=0;points=[];autosize=1;strokeColor=none;fillColor=none;" parent="WIyWlLk6GJQsqaUBKTNV-1" vertex="1">
          <mxGeometry x="-1309" y="558.75" width="60" height="30" as="geometry" />
        </mxCell>
        <mxCell id="f4kUEkbPoWxWhxqfEex--184" value="Table 7" style="text;html=1;align=center;verticalAlign=middle;resizable=0;points=[];autosize=1;strokeColor=none;fillColor=none;" parent="WIyWlLk6GJQsqaUBKTNV-1" vertex="1">
          <mxGeometry x="-345.75" y="285.75" width="60" height="30" as="geometry" />
        </mxCell>
        <mxCell id="iDPijzrnsPvzbCgEeZp9-0" value="Table 4" style="text;html=1;align=center;verticalAlign=middle;resizable=0;points=[];autosize=1;strokeColor=none;fillColor=none;" parent="WIyWlLk6GJQsqaUBKTNV-1" vertex="1">
          <mxGeometry x="-454.57" y="967.3" width="60" height="30" as="geometry" />
        </mxCell>
        <mxCell id="2nXwkHQIXcvvFhZYG573-7" value="score: float" style="ellipse;whiteSpace=wrap;html=1;" parent="WIyWlLk6GJQsqaUBKTNV-1" vertex="1">
          <mxGeometry x="-539.3199999999999" y="850.9300000000001" width="78" height="50" as="geometry" />
        </mxCell>
        <mxCell id="2nXwkHQIXcvvFhZYG573-8" value="" style="endArrow=none;html=1;rounded=0;entryX=0;entryY=0;entryDx=0;entryDy=0;exitX=1;exitY=1;exitDx=0;exitDy=0;" parent="WIyWlLk6GJQsqaUBKTNV-1" source="2nXwkHQIXcvvFhZYG573-7" target="f4kUEkbPoWxWhxqfEex--134" edge="1">
          <mxGeometry width="50" height="50" relative="1" as="geometry">
            <mxPoint x="-296.82" y="975.5600000000002" as="sourcePoint" />
            <mxPoint x="-320.82" y="954.56" as="targetPoint" />
          </mxGeometry>
        </mxCell>
        <mxCell id="2nXwkHQIXcvvFhZYG573-11" value="" style="endArrow=none;html=1;rounded=0;entryX=0.5;entryY=1;entryDx=0;entryDy=0;exitX=0.687;exitY=0.002;exitDx=0;exitDy=0;exitPerimeter=0;" parent="WIyWlLk6GJQsqaUBKTNV-1" source="R3gAXF-IG7hELK_54bFL-15" target="f4kUEkbPoWxWhxqfEex--145" edge="1">
          <mxGeometry width="50" height="50" relative="1" as="geometry">
            <mxPoint x="-686" y="660" as="sourcePoint" />
            <mxPoint x="-636" y="610" as="targetPoint" />
          </mxGeometry>
        </mxCell>
        <mxCell id="2nXwkHQIXcvvFhZYG573-12" value="Lession" style="rounded=0;whiteSpace=wrap;html=1;" parent="WIyWlLk6GJQsqaUBKTNV-1" vertex="1">
          <mxGeometry x="-1019" y="499" width="120" height="60" as="geometry" />
        </mxCell>
        <mxCell id="2nXwkHQIXcvvFhZYG573-16" value="" style="endArrow=none;html=1;rounded=0;exitX=0.5;exitY=1;exitDx=0;exitDy=0;entryX=0.5;entryY=0;entryDx=0;entryDy=0;" parent="WIyWlLk6GJQsqaUBKTNV-1" source="R3gAXF-IG7hELK_54bFL-27" target="2nXwkHQIXcvvFhZYG573-17" edge="1">
          <mxGeometry width="50" height="50" relative="1" as="geometry">
            <mxPoint x="-1269" y="412" as="sourcePoint" />
            <mxPoint x="-949" y="362" as="targetPoint" />
          </mxGeometry>
        </mxCell>
        <mxCell id="2nXwkHQIXcvvFhZYG573-17" value="have" style="rhombus;whiteSpace=wrap;html=1;" parent="WIyWlLk6GJQsqaUBKTNV-1" vertex="1">
          <mxGeometry x="-999" y="378.25" width="80" height="80" as="geometry" />
        </mxCell>
        <mxCell id="2nXwkHQIXcvvFhZYG573-20" value="" style="endArrow=none;html=1;rounded=0;entryX=0.5;entryY=1;entryDx=0;entryDy=0;exitX=0.5;exitY=0;exitDx=0;exitDy=0;" parent="WIyWlLk6GJQsqaUBKTNV-1" source="2nXwkHQIXcvvFhZYG573-12" target="2nXwkHQIXcvvFhZYG573-17" edge="1">
          <mxGeometry width="50" height="50" relative="1" as="geometry">
            <mxPoint x="-1080" y="531" as="sourcePoint" />
            <mxPoint x="-1030" y="481" as="targetPoint" />
          </mxGeometry>
        </mxCell>
        <mxCell id="2nXwkHQIXcvvFhZYG573-23" value="isTaken" style="rhombus;whiteSpace=wrap;html=1;" parent="WIyWlLk6GJQsqaUBKTNV-1" vertex="1">
          <mxGeometry x="-1150" y="489" width="80" height="80" as="geometry" />
        </mxCell>
        <mxCell id="2nXwkHQIXcvvFhZYG573-24" value="" style="endArrow=none;html=1;rounded=0;entryX=1;entryY=0.5;entryDx=0;entryDy=0;exitX=0;exitY=0.5;exitDx=0;exitDy=0;" parent="WIyWlLk6GJQsqaUBKTNV-1" source="2nXwkHQIXcvvFhZYG573-23" target="R3gAXF-IG7hELK_54bFL-24" edge="1">
          <mxGeometry width="50" height="50" relative="1" as="geometry">
            <mxPoint x="-1160" y="681" as="sourcePoint" />
            <mxPoint x="-1110" y="631" as="targetPoint" />
          </mxGeometry>
        </mxCell>
        <mxCell id="2nXwkHQIXcvvFhZYG573-25" value="" style="endArrow=none;html=1;rounded=0;entryX=1;entryY=0.5;entryDx=0;entryDy=0;exitX=0;exitY=0.5;exitDx=0;exitDy=0;" parent="WIyWlLk6GJQsqaUBKTNV-1" source="2nXwkHQIXcvvFhZYG573-12" target="2nXwkHQIXcvvFhZYG573-23" edge="1">
          <mxGeometry width="50" height="50" relative="1" as="geometry">
            <mxPoint x="-1040" y="651" as="sourcePoint" />
            <mxPoint x="-990" y="601" as="targetPoint" />
          </mxGeometry>
        </mxCell>
        <mxCell id="2nXwkHQIXcvvFhZYG573-28" value="Table 9" style="text;html=1;align=center;verticalAlign=middle;resizable=0;points=[];autosize=1;strokeColor=none;fillColor=none;" parent="WIyWlLk6GJQsqaUBKTNV-1" vertex="1">
          <mxGeometry x="160" y="489" width="60" height="30" as="geometry" />
        </mxCell>
        <mxCell id="2nXwkHQIXcvvFhZYG573-29" value="Table 11" style="text;html=1;align=center;verticalAlign=middle;resizable=0;points=[];autosize=1;strokeColor=none;fillColor=none;" parent="WIyWlLk6GJQsqaUBKTNV-1" vertex="1">
          <mxGeometry x="-1084" y="286.75" width="70" height="30" as="geometry" />
        </mxCell>
        <mxCell id="2nXwkHQIXcvvFhZYG573-30" value="Table 12" style="text;html=1;align=center;verticalAlign=middle;resizable=0;points=[];autosize=1;strokeColor=none;fillColor=none;" parent="WIyWlLk6GJQsqaUBKTNV-1" vertex="1">
          <mxGeometry x="-730" y="231.75" width="70" height="30" as="geometry" />
        </mxCell>
        <mxCell id="2nXwkHQIXcvvFhZYG573-31" value="Table 13" style="text;html=1;align=center;verticalAlign=middle;resizable=0;points=[];autosize=1;strokeColor=none;fillColor=none;" parent="WIyWlLk6GJQsqaUBKTNV-1" vertex="1">
          <mxGeometry x="-955" y="466" width="70" height="30" as="geometry" />
        </mxCell>
        <mxCell id="2nXwkHQIXcvvFhZYG573-32" value="Table 16" style="text;html=1;align=center;verticalAlign=middle;resizable=0;points=[];autosize=1;strokeColor=none;fillColor=none;" parent="WIyWlLk6GJQsqaUBKTNV-1" vertex="1">
          <mxGeometry x="-477.25" y="573.5" width="70" height="30" as="geometry" />
        </mxCell>
        <mxCell id="2nXwkHQIXcvvFhZYG573-34" value="qualification: nvarchar(150)" style="ellipse;whiteSpace=wrap;html=1;" parent="WIyWlLk6GJQsqaUBKTNV-1" vertex="1">
          <mxGeometry x="-1260" y="416" width="120" height="61" as="geometry" />
        </mxCell>
        <mxCell id="2nXwkHQIXcvvFhZYG573-35" value="" style="endArrow=none;html=1;rounded=0;exitX=0.5;exitY=1;exitDx=0;exitDy=0;entryX=0.75;entryY=0;entryDx=0;entryDy=0;" parent="WIyWlLk6GJQsqaUBKTNV-1" source="2nXwkHQIXcvvFhZYG573-34" target="R3gAXF-IG7hELK_54bFL-24" edge="1">
          <mxGeometry width="50" height="50" relative="1" as="geometry">
            <mxPoint x="-1170" y="419.75" as="sourcePoint" />
            <mxPoint x="-1170" y="465.75" as="targetPoint" />
          </mxGeometry>
        </mxCell>
        <mxCell id="FPdsWtPOAh7R0VC1U4oX-1" value="relatives" style="rhombus;whiteSpace=wrap;html=1;" parent="WIyWlLk6GJQsqaUBKTNV-1" vertex="1">
          <mxGeometry x="280" y="486.75" width="80" height="80" as="geometry" />
        </mxCell>
        <mxCell id="FPdsWtPOAh7R0VC1U4oX-2" value="" style="endArrow=none;html=1;rounded=0;entryX=0;entryY=0.5;entryDx=0;entryDy=0;exitX=1;exitY=0.5;exitDx=0;exitDy=0;" parent="WIyWlLk6GJQsqaUBKTNV-1" source="R3gAXF-IG7hELK_54bFL-0" target="FPdsWtPOAh7R0VC1U4oX-1" edge="1">
          <mxGeometry width="50" height="50" relative="1" as="geometry">
            <mxPoint x="300" y="574" as="sourcePoint" />
            <mxPoint x="370" y="537" as="targetPoint" />
          </mxGeometry>
        </mxCell>
        <mxCell id="FPdsWtPOAh7R0VC1U4oX-3" value="address: nvarchar(150)" style="ellipse;whiteSpace=wrap;html=1;" parent="WIyWlLk6GJQsqaUBKTNV-1" vertex="1">
          <mxGeometry x="140" y="569" width="100" height="48" as="geometry" />
        </mxCell>
        <mxCell id="FPdsWtPOAh7R0VC1U4oX-5" value="" style="endArrow=none;html=1;rounded=0;exitX=0.75;exitY=1;exitDx=0;exitDy=0;" parent="WIyWlLk6GJQsqaUBKTNV-1" source="R3gAXF-IG7hELK_54bFL-0" target="FPdsWtPOAh7R0VC1U4oX-3" edge="1">
          <mxGeometry width="50" height="50" relative="1" as="geometry">
            <mxPoint x="290" y="690" as="sourcePoint" />
            <mxPoint x="340" y="640" as="targetPoint" />
          </mxGeometry>
        </mxCell>
        <mxCell id="FPdsWtPOAh7R0VC1U4oX-7" value="Dependent" style="rounded=0;whiteSpace=wrap;html=1;" parent="WIyWlLk6GJQsqaUBKTNV-1" vertex="1">
          <mxGeometry x="470" y="496.75" width="120" height="60" as="geometry" />
        </mxCell>
        <mxCell id="FPdsWtPOAh7R0VC1U4oX-8" value="" style="endArrow=none;html=1;rounded=0;entryX=0;entryY=0.5;entryDx=0;entryDy=0;exitX=1;exitY=0.5;exitDx=0;exitDy=0;" parent="WIyWlLk6GJQsqaUBKTNV-1" source="FPdsWtPOAh7R0VC1U4oX-1" target="FPdsWtPOAh7R0VC1U4oX-7" edge="1">
          <mxGeometry width="50" height="50" relative="1" as="geometry">
            <mxPoint x="370" y="519.75" as="sourcePoint" />
            <mxPoint x="480" y="519.75" as="targetPoint" />
          </mxGeometry>
        </mxCell>
        <mxCell id="FPdsWtPOAh7R0VC1U4oX-9" value="name: nvarchar(150)" style="ellipse;whiteSpace=wrap;html=1;" parent="WIyWlLk6GJQsqaUBKTNV-1" vertex="1">
          <mxGeometry x="400" y="430.75" width="120" height="60" as="geometry" />
        </mxCell>
        <mxCell id="FPdsWtPOAh7R0VC1U4oX-11" value="gender: bit" style="ellipse;whiteSpace=wrap;html=1;" parent="WIyWlLk6GJQsqaUBKTNV-1" vertex="1">
          <mxGeometry x="530" y="430.75" width="90" height="40" as="geometry" />
        </mxCell>
        <mxCell id="FPdsWtPOAh7R0VC1U4oX-12" value="dob: date" style="ellipse;whiteSpace=wrap;html=1;" parent="WIyWlLk6GJQsqaUBKTNV-1" vertex="1">
          <mxGeometry x="460" y="406.75" width="100" height="40" as="geometry" />
        </mxCell>
        <mxCell id="FPdsWtPOAh7R0VC1U4oX-13" value="relationship: nvarchar(150)" style="ellipse;whiteSpace=wrap;html=1;" parent="WIyWlLk6GJQsqaUBKTNV-1" vertex="1">
          <mxGeometry x="610" y="451.75" width="120" height="60" as="geometry" />
        </mxCell>
        <mxCell id="FPdsWtPOAh7R0VC1U4oX-14" value="Table 10" style="text;html=1;align=center;verticalAlign=middle;resizable=0;points=[];autosize=1;strokeColor=none;fillColor=none;" parent="WIyWlLk6GJQsqaUBKTNV-1" vertex="1">
          <mxGeometry x="585" y="511.75" width="70" height="30" as="geometry" />
        </mxCell>
        <mxCell id="FPdsWtPOAh7R0VC1U4oX-20" value="Evaluate" style="rhombus;whiteSpace=wrap;html=1;" parent="WIyWlLk6GJQsqaUBKTNV-1" vertex="1">
          <mxGeometry x="-1319" y="-80" width="80" height="80" as="geometry" />
        </mxCell>
        <mxCell id="FPdsWtPOAh7R0VC1U4oX-21" value="" style="endArrow=none;html=1;rounded=0;entryX=0.5;entryY=1;entryDx=0;entryDy=0;exitX=0.5;exitY=0;exitDx=0;exitDy=0;" parent="WIyWlLk6GJQsqaUBKTNV-1" source="R3gAXF-IG7hELK_54bFL-24" target="FPdsWtPOAh7R0VC1U4oX-20" edge="1">
          <mxGeometry width="50" height="50" relative="1" as="geometry">
            <mxPoint x="-1340" y="270" as="sourcePoint" />
            <mxPoint x="-1290" y="220" as="targetPoint" />
          </mxGeometry>
        </mxCell>
        <mxCell id="FPdsWtPOAh7R0VC1U4oX-22" value="" style="endArrow=none;html=1;rounded=0;exitX=1;exitY=0.5;exitDx=0;exitDy=0;entryX=0.25;entryY=0;entryDx=0;entryDy=0;" parent="WIyWlLk6GJQsqaUBKTNV-1" source="FPdsWtPOAh7R0VC1U4oX-20" target="R3gAXF-IG7hELK_54bFL-0" edge="1">
          <mxGeometry width="50" height="50" relative="1" as="geometry">
            <mxPoint x="-1030" y="-10" as="sourcePoint" />
            <mxPoint x="-980" y="-60" as="targetPoint" />
            <Array as="points">
              <mxPoint x="70" y="-40" />
            </Array>
          </mxGeometry>
        </mxCell>
        <mxCell id="FPdsWtPOAh7R0VC1U4oX-23" value="Rank" style="rounded=0;whiteSpace=wrap;html=1;" parent="WIyWlLk6GJQsqaUBKTNV-1" vertex="1">
          <mxGeometry x="-1190" y="34.25" width="120" height="60" as="geometry" />
        </mxCell>
        <mxCell id="FPdsWtPOAh7R0VC1U4oX-24" value="" style="endArrow=none;html=1;rounded=0;exitX=1;exitY=1;exitDx=0;exitDy=0;entryX=0;entryY=0;entryDx=0;entryDy=0;" parent="WIyWlLk6GJQsqaUBKTNV-1" source="FPdsWtPOAh7R0VC1U4oX-20" target="FPdsWtPOAh7R0VC1U4oX-23" edge="1">
          <mxGeometry width="50" height="50" relative="1" as="geometry">
            <mxPoint x="-1220" y="70" as="sourcePoint" />
            <mxPoint x="-1170" y="20" as="targetPoint" />
          </mxGeometry>
        </mxCell>
        <mxCell id="FPdsWtPOAh7R0VC1U4oX-25" value="&lt;u&gt;id&lt;/u&gt;: int" style="ellipse;whiteSpace=wrap;html=1;" parent="WIyWlLk6GJQsqaUBKTNV-1" vertex="1">
          <mxGeometry x="-1204" y="120.25" width="120" height="40" as="geometry" />
        </mxCell>
        <mxCell id="FPdsWtPOAh7R0VC1U4oX-26" value="" style="endArrow=none;html=1;rounded=0;entryX=1;entryY=0.5;entryDx=0;entryDy=0;exitX=0;exitY=0.5;exitDx=0;exitDy=0;" parent="WIyWlLk6GJQsqaUBKTNV-1" source="FPdsWtPOAh7R0VC1U4oX-27" target="FPdsWtPOAh7R0VC1U4oX-23" edge="1">
          <mxGeometry width="50" height="50" relative="1" as="geometry">
            <mxPoint x="-1048" y="133.9" as="sourcePoint" />
            <mxPoint x="-1052.04" y="106.59000000000006" as="targetPoint" />
          </mxGeometry>
        </mxCell>
        <mxCell id="FPdsWtPOAh7R0VC1U4oX-27" value="value: nvarchar(50)" style="ellipse;whiteSpace=wrap;html=1;" parent="WIyWlLk6GJQsqaUBKTNV-1" vertex="1">
          <mxGeometry x="-1048" y="40" width="88" height="50" as="geometry" />
        </mxCell>
        <mxCell id="FPdsWtPOAh7R0VC1U4oX-29" value="" style="endArrow=none;html=1;rounded=0;entryX=0.375;entryY=0.99;entryDx=0;entryDy=0;exitX=0.5;exitY=0;exitDx=0;exitDy=0;entryPerimeter=0;" parent="WIyWlLk6GJQsqaUBKTNV-1" source="FPdsWtPOAh7R0VC1U4oX-25" target="FPdsWtPOAh7R0VC1U4oX-23" edge="1">
          <mxGeometry width="50" height="50" relative="1" as="geometry">
            <mxPoint x="-1034.43" y="109.86" as="sourcePoint" />
            <mxPoint x="-1060.43" y="93.86" as="targetPoint" />
          </mxGeometry>
        </mxCell>
        <mxCell id="FPdsWtPOAh7R0VC1U4oX-30" value="attitude: int" style="ellipse;whiteSpace=wrap;html=1;" parent="WIyWlLk6GJQsqaUBKTNV-1" vertex="1">
          <mxGeometry x="-1285" y="-130" width="90" height="40" as="geometry" />
        </mxCell>
        <mxCell id="FPdsWtPOAh7R0VC1U4oX-31" value="on time: int" style="ellipse;whiteSpace=wrap;html=1;" parent="WIyWlLk6GJQsqaUBKTNV-1" vertex="1">
          <mxGeometry x="-1396" y="-150" width="87" height="40" as="geometry" />
        </mxCell>
        <mxCell id="FPdsWtPOAh7R0VC1U4oX-39" value="" style="ellipse;whiteSpace=wrap;html=1;" parent="WIyWlLk6GJQsqaUBKTNV-1" vertex="1">
          <mxGeometry x="-1389" y="-20" width="87" height="40" as="geometry" />
        </mxCell>
        <mxCell id="FPdsWtPOAh7R0VC1U4oX-40" value="description: nvarchar(500)" style="ellipse;whiteSpace=wrap;html=1;" parent="WIyWlLk6GJQsqaUBKTNV-1" vertex="1">
          <mxGeometry x="-1389" y="-100" width="104" height="50" as="geometry" />
        </mxCell>
        <mxCell id="FPdsWtPOAh7R0VC1U4oX-44" value="Term" style="rounded=0;whiteSpace=wrap;html=1;" parent="WIyWlLk6GJQsqaUBKTNV-1" vertex="1">
          <mxGeometry x="-661.5" y="360" width="120" height="60" as="geometry" />
        </mxCell>
        <mxCell id="FPdsWtPOAh7R0VC1U4oX-45" value="monthBegin: int" style="ellipse;whiteSpace=wrap;html=1;" parent="WIyWlLk6GJQsqaUBKTNV-1" vertex="1">
          <mxGeometry x="-707" y="410" width="120" height="80" as="geometry" />
        </mxCell>
        <mxCell id="FPdsWtPOAh7R0VC1U4oX-46" value="monthEnd: int" style="ellipse;whiteSpace=wrap;html=1;" parent="WIyWlLk6GJQsqaUBKTNV-1" vertex="1">
          <mxGeometry x="-600.25" y="397" width="120" height="80" as="geometry" />
        </mxCell>
        <mxCell id="FPdsWtPOAh7R0VC1U4oX-50" value="year: int" style="ellipse;whiteSpace=wrap;html=1;" parent="WIyWlLk6GJQsqaUBKTNV-1" vertex="1">
          <mxGeometry x="-827" y="190.75" width="91" height="46.75" as="geometry" />
        </mxCell>
        <mxCell id="FPdsWtPOAh7R0VC1U4oX-52" value="" style="endArrow=none;html=1;rounded=0;exitX=1;exitY=1;exitDx=0;exitDy=0;entryX=0;entryY=0;entryDx=0;entryDy=0;" parent="WIyWlLk6GJQsqaUBKTNV-1" source="f4kUEkbPoWxWhxqfEex--145" target="FPdsWtPOAh7R0VC1U4oX-44" edge="1">
          <mxGeometry width="50" height="50" relative="1" as="geometry">
            <mxPoint x="-710" y="380" as="sourcePoint" />
            <mxPoint x="-660" y="330" as="targetPoint" />
          </mxGeometry>
        </mxCell>
        <mxCell id="FPdsWtPOAh7R0VC1U4oX-53" value="Table 8" style="text;html=1;align=center;verticalAlign=middle;resizable=0;points=[];autosize=1;strokeColor=none;fillColor=none;" parent="WIyWlLk6GJQsqaUBKTNV-1" vertex="1">
          <mxGeometry x="-613.75" y="330" width="60" height="30" as="geometry" />
        </mxCell>
        <mxCell id="FPdsWtPOAh7R0VC1U4oX-55" value="" style="endArrow=none;html=1;rounded=0;entryX=1;entryY=0.75;entryDx=0;entryDy=0;exitX=0.5;exitY=0;exitDx=0;exitDy=0;" parent="WIyWlLk6GJQsqaUBKTNV-1" source="FPdsWtPOAh7R0VC1U4oX-57" target="2nXwkHQIXcvvFhZYG573-12" edge="1">
          <mxGeometry width="50" height="50" relative="1" as="geometry">
            <mxPoint x="-840" y="790" as="sourcePoint" />
            <mxPoint x="-790" y="740" as="targetPoint" />
            <Array as="points">
              <mxPoint x="-754" y="544" />
            </Array>
          </mxGeometry>
        </mxCell>
        <mxCell id="FPdsWtPOAh7R0VC1U4oX-56" value="" style="endArrow=none;html=1;rounded=0;entryX=0.5;entryY=1;entryDx=0;entryDy=0;exitX=0.5;exitY=0;exitDx=0;exitDy=0;" parent="WIyWlLk6GJQsqaUBKTNV-1" source="R3gAXF-IG7hELK_54bFL-15" target="FPdsWtPOAh7R0VC1U4oX-57" edge="1">
          <mxGeometry width="50" height="50" relative="1" as="geometry">
            <mxPoint x="-754" y="1160" as="sourcePoint" />
            <mxPoint x="-899" y="544" as="targetPoint" />
            <Array as="points" />
          </mxGeometry>
        </mxCell>
        <mxCell id="FPdsWtPOAh7R0VC1U4oX-57" value="have" style="rhombus;whiteSpace=wrap;html=1;" parent="WIyWlLk6GJQsqaUBKTNV-1" vertex="1">
          <mxGeometry x="-792" y="779" width="80" height="80" as="geometry" />
        </mxCell>
        <mxCell id="FPdsWtPOAh7R0VC1U4oX-58" value="record: dateTime" style="ellipse;whiteSpace=wrap;html=1;" parent="WIyWlLk6GJQsqaUBKTNV-1" vertex="1">
          <mxGeometry x="-1170" y="588.75" width="120" height="55" as="geometry" />
        </mxCell>
        <mxCell id="FPdsWtPOAh7R0VC1U4oX-59" value="" style="endArrow=none;html=1;rounded=0;entryX=0.5;entryY=1;entryDx=0;entryDy=0;exitX=0.5;exitY=0;exitDx=0;exitDy=0;" parent="WIyWlLk6GJQsqaUBKTNV-1" source="FPdsWtPOAh7R0VC1U4oX-58" target="2nXwkHQIXcvvFhZYG573-23" edge="1">
          <mxGeometry width="50" height="50" relative="1" as="geometry">
            <mxPoint x="-1110.59" y="588.75" as="sourcePoint" />
            <mxPoint x="-1110.59" y="562.75" as="targetPoint" />
            <Array as="points" />
          </mxGeometry>
        </mxCell>
        <mxCell id="FPdsWtPOAh7R0VC1U4oX-60" value="Table 14" style="text;html=1;align=center;verticalAlign=middle;resizable=0;points=[];autosize=1;strokeColor=none;fillColor=none;" parent="WIyWlLk6GJQsqaUBKTNV-1" vertex="1">
          <mxGeometry x="-1145" y="457.25" width="70" height="30" as="geometry" />
        </mxCell>
        <mxCell id="FPdsWtPOAh7R0VC1U4oX-67" value="" style="endArrow=none;html=1;rounded=0;entryX=1;entryY=0;entryDx=0;entryDy=0;" parent="WIyWlLk6GJQsqaUBKTNV-1" target="FPdsWtPOAh7R0VC1U4oX-66" edge="1">
          <mxGeometry width="50" height="50" relative="1" as="geometry">
            <mxPoint x="40" y="554" as="sourcePoint" />
            <mxPoint x="-398.25000000000017" y="900.9300000000003" as="targetPoint" />
          </mxGeometry>
        </mxCell>
        <mxCell id="FPdsWtPOAh7R0VC1U4oX-66" value="Score" style="rounded=0;whiteSpace=wrap;html=1;" parent="WIyWlLk6GJQsqaUBKTNV-1" vertex="1">
          <mxGeometry x="-230.0000000000001" y="700" width="120" height="60" as="geometry" />
        </mxCell>
        <mxCell id="FPdsWtPOAh7R0VC1U4oX-70" value="" style="endArrow=none;html=1;rounded=0;entryX=1;entryY=0;entryDx=0;entryDy=0;exitX=0;exitY=1;exitDx=0;exitDy=0;" parent="WIyWlLk6GJQsqaUBKTNV-1" source="FPdsWtPOAh7R0VC1U4oX-66" target="f4kUEkbPoWxWhxqfEex--134" edge="1">
          <mxGeometry width="50" height="50" relative="1" as="geometry">
            <mxPoint x="-256.93" y="713.5" as="sourcePoint" />
            <mxPoint x="-413" y="860" as="targetPoint" />
          </mxGeometry>
        </mxCell>
        <mxCell id="FPdsWtPOAh7R0VC1U4oX-73" value="have" style="rhombus;whiteSpace=wrap;html=1;" parent="WIyWlLk6GJQsqaUBKTNV-1" vertex="1">
          <mxGeometry x="-60" y="576.25" width="80" height="80" as="geometry" />
        </mxCell>
        <mxCell id="FPdsWtPOAh7R0VC1U4oX-76" value="value: float" style="ellipse;whiteSpace=wrap;html=1;" parent="WIyWlLk6GJQsqaUBKTNV-1" vertex="1">
          <mxGeometry x="-297.03" y="687.25" width="86" height="57" as="geometry" />
        </mxCell>
        <mxCell id="h1EtfrYcp3vvMJuQXe0Y-0" value="Table 17" style="text;html=1;align=center;verticalAlign=middle;resizable=0;points=[];autosize=1;strokeColor=none;fillColor=none;" parent="WIyWlLk6GJQsqaUBKTNV-1" vertex="1">
          <mxGeometry x="-190" y="670" width="70" height="30" as="geometry" />
        </mxCell>
        <mxCell id="h1EtfrYcp3vvMJuQXe0Y-2" value="endTime: nvarchar(5)" style="ellipse;whiteSpace=wrap;html=1;" parent="WIyWlLk6GJQsqaUBKTNV-1" vertex="1">
          <mxGeometry x="-530.25" y="180" width="110" height="50" as="geometry" />
        </mxCell>
        <mxCell id="QlX9fBjH217oZHf1At0o-1" value="Participate" style="rounded=0;whiteSpace=wrap;html=1;" vertex="1" parent="WIyWlLk6GJQsqaUBKTNV-1">
          <mxGeometry x="-625" y="528.75" width="120" height="60" as="geometry" />
        </mxCell>
        <mxCell id="QlX9fBjH217oZHf1At0o-2" value="" style="endArrow=none;html=1;rounded=0;exitX=1;exitY=0.5;exitDx=0;exitDy=0;entryX=0;entryY=0.5;entryDx=0;entryDy=0;" edge="1" parent="WIyWlLk6GJQsqaUBKTNV-1" source="QlX9fBjH217oZHf1At0o-1" target="R3gAXF-IG7hELK_54bFL-0">
          <mxGeometry width="50" height="50" relative="1" as="geometry">
            <mxPoint x="-398.25" y="512" as="sourcePoint" />
            <mxPoint x="-29.25" y="512" as="targetPoint" />
          </mxGeometry>
        </mxCell>
        <mxCell id="QlX9fBjH217oZHf1At0o-4" value="" style="endArrow=none;html=1;rounded=0;exitX=1;exitY=1;exitDx=0;exitDy=0;entryX=0;entryY=0.5;entryDx=0;entryDy=0;" edge="1" parent="WIyWlLk6GJQsqaUBKTNV-1" source="R3gAXF-IG7hELK_54bFL-27" target="QlX9fBjH217oZHf1At0o-1">
          <mxGeometry width="50" height="50" relative="1" as="geometry">
            <mxPoint x="-526.5" y="602.38" as="sourcePoint" />
            <mxPoint x="-650" y="560" as="targetPoint" />
          </mxGeometry>
        </mxCell>
        <mxCell id="QlX9fBjH217oZHf1At0o-5" value="" style="endArrow=none;html=1;rounded=0;entryX=0.75;entryY=0;entryDx=0;entryDy=0;exitX=0.5;exitY=1;exitDx=0;exitDy=0;" edge="1" parent="WIyWlLk6GJQsqaUBKTNV-1" source="QlX9fBjH217oZHf1At0o-1" target="R3gAXF-IG7hELK_54bFL-15">
          <mxGeometry width="50" height="50" relative="1" as="geometry">
            <mxPoint x="-539" y="829.5699999999999" as="sourcePoint" />
            <mxPoint x="-789" y="1046.57" as="targetPoint" />
          </mxGeometry>
        </mxCell>
        <mxCell id="QlX9fBjH217oZHf1At0o-7" value="Table 15" style="text;html=1;align=center;verticalAlign=middle;resizable=0;points=[];autosize=1;strokeColor=none;fillColor=none;" vertex="1" parent="WIyWlLk6GJQsqaUBKTNV-1">
          <mxGeometry x="-595" y="499" width="70" height="30" as="geometry" />
        </mxCell>
        <mxCell id="QlX9fBjH217oZHf1At0o-8" value="" style="endArrow=none;html=1;rounded=0;entryX=0;entryY=0;entryDx=0;entryDy=0;exitX=0.75;exitY=1;exitDx=0;exitDy=0;" edge="1" parent="WIyWlLk6GJQsqaUBKTNV-1" source="QlX9fBjH217oZHf1At0o-1" target="f4kUEkbPoWxWhxqfEex--79">
          <mxGeometry width="50" height="50" relative="1" as="geometry">
            <mxPoint x="-580" y="614" as="sourcePoint" />
            <mxPoint x="-730" y="760" as="targetPoint" />
          </mxGeometry>
        </mxCell>
      </root>
    </mxGraphModel>
  </diagram>
</mxfile>
